IKResults
version=1
nRows=16
nColumns=40
inDegrees=yes

Units are S.I. units (second, meters, Newtons, ...)
If the header above contains a line with 'inDegrees', this indicates whether rotational values are in degrees (yes) or radians (no).

endheader
time	pelvis_tilt	pelvis_list	pelvis_rotation	pelvis_tx	pelvis_ty	pelvis_tz	hip_flexion_r	hip_adduction_r	hip_rotation_r	knee_angle_r	knee_angle_r_beta	ankle_angle_r	subtalar_angle_r	mtp_angle_r	hip_flexion_l	hip_adduction_l	hip_rotation_l	knee_angle_l	knee_angle_l_beta	ankle_angle_l	subtalar_angle_l	mtp_angle_l	lumbar_extension	lumbar_bending	lumbar_rotation	arm_flex_r	arm_add_r	arm_rot_r	elbow_flex_r	pro_sup_r	wrist_flex_r	wrist_dev_r	arm_flex_l	arm_add_l	arm_rot_l	elbow_flex_l	pro_sup_l	wrist_flex_l	wrist_dev_l
      1.60000000	      2.74692334	     -5.39075421	     -4.99537499	      0.76406190	      0.89202002	     -0.21236668	    -29.75078638	      1.99854131	    -11.83442428	     15.13634426	      0.26417904	     -7.68138717	      0.00000000	      0.00000000	     32.83179633	    -11.70275005	    -11.04451791	     20.16387179	      0.35192595	     -7.07649980	      0.00000000	      0.00000000	     -9.15895081	      1.52249180	     15.07568654	      6.85608635	    -36.10866416	     19.11539821	     66.79898365	     87.14950314	      0.00000000	      0.00000000	    -14.68804784	    -14.91583751	     66.02388191	     15.95541955	     87.68889711	      0.00000000	      0.00000000
      1.60500000	      2.85973033	     -5.19881127	     -4.95255487	      0.77526153	      0.89216046	     -0.21309856	    -29.75551562	      1.47223976	    -12.57714119	     16.07455166	      0.28055385	     -9.56351055	      0.00000000	      0.00000000	     32.58272589	    -11.50183347	    -10.96068109	     21.18923594	      0.36982193	     -6.75598858	      0.00000000	      0.00000000	     -9.07057218	      1.29955418	     14.95619033	      6.35129722	    -35.85794256	     18.87655747	     66.74433873	     87.15503045	      0.00000000	      0.00000000	    -14.81712558	    -15.01315281	     65.99711281	     16.03714241	     87.69346363	      0.00000000	      0.00000000
      1.61000000	      2.92134443	     -4.96621245	     -4.86254489	      0.78663978	      0.89220691	     -0.21388540	    -29.74261634	      0.95098304	    -13.28543491	     16.90265616	      0.29500700	    -11.46258493	      0.00000000	      0.00000000	     32.26392726	    -11.16315261	    -10.60672766	     22.00025543	      0.38397689	     -6.37659657	      0.00000000	      0.00000000	     -8.90098381	      1.04453075	     14.79735971	      5.72501492	    -35.59126521	     18.57423123	     66.76020317	     87.16947321	      0.00000000	      0.00000000	    -14.94125830	    -15.14384563	     65.91131158	     16.15970485	     87.69803553	      0.00000000	      0.00000000
      1.61500000	      3.01799818	     -4.63881085	     -4.67754180	      0.79795611	      0.89222553	     -0.21503446	    -29.72872478	      0.37491991	    -13.92807093	     17.73993044	      0.30962020	    -13.37266729	      0.00000000	      0.00000000	     31.85559324	    -10.61193613	    -10.10183311	     22.65599249	      0.39542166	     -6.29209308	      0.00000000	      0.00000000	     -8.78016307	      0.70489244	     14.55031802	      5.07833202	    -35.32242310	     18.22942337	     66.79324521	     87.20630933	      0.00000000	      0.00000000	    -15.03140102	    -15.28555663	     65.73025531	     16.30779372	     87.71147500	      0.00000000	      0.00000000
      1.62000000	      3.17274151	     -4.37769552	     -4.58370726	      0.80924394	      0.89238793	     -0.21589250	    -29.71150708	     -0.18523946	    -14.40391595	     18.63879850	      0.32530840	    -15.38855989	      0.00000000	      0.00000000	     31.38112477	    -10.23219097	    -10.25291117	     23.16702537	      0.40434087	     -6.98272497	      0.00000000	      0.00000000	     -8.72640660	      0.41853014	     14.34060258	      4.59714957	    -35.07020877	     18.12814573	     66.71128880	     87.22441645	      0.00000000	      0.00000000	    -15.12322273	    -15.42412892	     65.60953527	     16.48541221	     87.71266852	      0.00000000	      0.00000000
      1.62500000	      3.37972004	     -4.08569082	     -4.43570172	      0.82034283	      0.89268225	     -0.21689308	    -29.68875985	     -0.75085662	    -14.82359584	     19.56457424	      0.34146624	    -17.50175496	      0.00000000	      0.00000000	     30.83389596	     -9.80136963	    -10.50279594	     23.36538057	      0.40780282	     -8.20057289	      0.00000000	      0.00000000	     -8.75275622	      0.09793616	     14.03479455	      4.19988322	    -34.78208528	     18.05793974	     66.56487799	     87.23227277	      0.00000000	      0.00000000	    -15.17468348	    -15.53696942	     65.43809595	     16.64394095	     87.72657305	      0.00000000	      0.00000000
      1.63000000	      3.64772823	     -3.60246565	     -4.22074148	      0.83134220	      0.89310434	     -0.21804612	    -29.65721817	     -1.51566006	    -15.41450243	     20.57391235	      0.35908251	    -19.78685271	      0.00000000	      0.00000000	     30.13484752	     -9.08786706	    -10.55516995	     23.31178078	      0.40686733	     -9.15421473	      0.00000000	      0.00000000	     -8.85679879	     -0.43796170	     13.62854094	      3.85785874	    -34.44879756	     18.07095166	     66.34712256	     87.25762413	      0.00000000	      0.00000000	    -15.19876869	    -15.70580068	     65.11473941	     16.86581488	     87.72587803	      0.00000000	      0.00000000
      1.63500000	      3.97038212	     -3.12371332	     -3.90801917	      0.84201607	      0.89364702	     -0.21944655	    -29.59558393	     -2.22756243	    -15.89757645	     21.70896131	      0.37889285	    -22.25719911	      0.00000000	      0.00000000	     29.48773708	     -8.31714118	    -10.25628408	     23.41904387	      0.40873942	     -9.56741844	      0.00000000	      0.00000000	     -9.05257278	     -0.95538726	     13.03564575	      3.71677080	    -34.13998297	     18.31140467	     66.04971867	     87.26663816	      0.00000000	      0.00000000	    -15.17661450	    -15.82370501	     64.84364139	     17.05811185	     87.71744387	      0.00000000	      0.00000000
      1.64000000	      4.31669322	     -2.51550950	     -3.50195921	      0.85244277	      0.89428839	     -0.22123458	    -29.49412076	     -3.05183817	    -16.40100015	     22.96220951	      0.40076616	    -24.41683897	      0.00000000	      0.00000000	     28.82684067	     -7.31105564	     -9.50381614	     23.57421407	      0.41144765	    -10.12957363	      0.00000000	      0.00000000	     -9.30115525	     -1.58700408	     12.27570564	      3.74390847	    -33.78480710	     18.67076949	     65.56998784	     87.30340227	      0.00000000	      0.00000000	    -15.13853658	    -15.94089760	     64.48011617	     17.27953990	     87.72748223	      0.00000000	      0.00000000
      1.64500000	      4.66924537	     -2.09734309	     -3.21073115	      0.86249637	      0.89506532	     -0.22278192	    -29.27672218	     -3.68179314	    -16.29363775	     24.37300877	      0.42538925	    -25.94902362	      0.00000000	      0.00000000	     28.29507983	     -6.60064506	     -8.71009811	     24.15044107	      0.42150471	    -10.59740235	      0.00000000	      0.00000000	     -9.61826355	     -2.00893929	     11.73065617	      3.63428311	    -33.45868778	     18.79540069	     65.21155789	     87.29769916	      0.00000000	      0.00000000	    -14.94305640	    -15.99878799	     64.42936858	     17.40624925	     87.73554701	      0.00000000	      0.00000000
      1.65000000	      4.98209502	     -1.28132397	     -2.72489394	      0.87273797	      0.89580902	     -0.22499809	    -28.92963104	     -4.79109515	    -17.06012825	     26.05613234	      0.45476530	    -27.68928940	      0.00000000	      0.00000000	     27.71140466	     -5.32324717	     -7.76901004	     24.63709626	      0.42999845	    -10.86283709	      0.00000000	      0.00000000	     -9.85744344	     -2.81881767	     10.83028884	      3.69923353	    -33.11517125	     19.29054328	     64.66038710	     87.31429427	      0.00000000	      0.00000000	    -14.80750015	    -16.11284763	     64.34296904	     17.55724365	     87.70503766	      0.00000000	      0.00000000
      1.65500000	      5.20772783	     -0.49180650	     -2.38675455	      0.88282529	      0.89645800	     -0.22690946	    -28.36765434	     -5.89072732	    -17.28715088	     27.96217664	      0.48803205	    -28.74790868	      0.00000000	      0.00000000	     27.36646470	     -4.21479706	     -7.01462345	     25.53357460	      0.44564495	    -10.40163508	      0.00000000	      0.00000000	    -10.02290301	     -3.61850015	      9.99218715	      3.86669989	    -32.73235424	     19.90679815	     64.01861323	     87.33618787	      0.00000000	      0.00000000	    -14.70530692	    -16.20696399	     64.13867561	     17.74044437	     87.69373182	      0.00000000	      0.00000000
      1.66000000	      5.55550002	      0.03271972	     -2.21999904	      0.89283313	      0.89747818	     -0.22815483	    -27.86923357	     -6.66465696	    -16.83678806	     29.79888316	      0.52008862	    -29.89260337	      0.00000000	      0.00000000	     26.95956390	     -3.54946413	     -6.54359803	     26.62630476	      0.46471669	     -9.72716836	      0.00000000	      0.00000000	    -10.36606834	     -4.17185168	      9.45771456	      3.81603361	    -32.27091174	     20.01658411	     63.50784228	     87.32816331	      0.00000000	      0.00000000	    -14.46438777	    -16.29675907	     64.12204470	     17.88248291	     87.68544967	      0.00000000	      0.00000000
      1.66500000	      5.75983620	      0.66995696	     -2.14778189	      0.90293228	      0.89824066	     -0.22948389	    -27.01583938	     -7.71748316	    -16.54066356	     32.02378556	      0.55892050	    -30.90674871	      0.00000000	      0.00000000	     26.72253690	     -2.77889163	     -6.27533644	     27.72973459	      0.48397517	     -8.81503982	      0.00000000	      0.00000000	    -10.49323964	     -4.82314625	      8.95733519	      3.81483378	    -31.83247054	     20.30459915	     62.88748830	     87.33944620	      0.00000000	      0.00000000	    -14.26913349	    -16.38207703	     64.17362801	     18.05139540	     87.67943333	      0.00000000	      0.00000000
      1.67000000	      5.58941746	      1.48663788	     -2.20750602	      0.91271531	      0.89839156	     -0.23068022	    -25.44774389	     -9.04800097	    -16.10162455	     34.76105694	      0.60669490	    -31.45751484	      0.00000000	      0.00000000	     26.86537915	     -1.84834459	     -6.19725724	     28.71570298	      0.50118356	     -7.96290578	      0.00000000	      0.00000000	    -10.20676395	     -5.68681253	      8.53198459	      3.89592250	    -31.43675036	     20.99425192	     62.12658526	     87.38061384	      0.00000000	      0.00000000	    -14.09084174	    -16.45349113	     64.20447422	     18.16132420	     87.64697930	      0.00000000	      0.00000000
      1.67500000	      5.48057871	      2.04352956	     -2.34029637	      0.92196686	      0.89881066	     -0.23142066	    -23.78883778	     -9.95651622	    -14.97863217	     37.53081748	      0.65503634	    -31.69326560	      0.00000000	      0.00000000	     26.94383244	     -1.24083510	     -6.01931657	     29.69829410	      0.51833301	     -7.44561123	      0.00000000	      0.00000000	    -10.03337587	     -6.29970704	      8.17829874	      4.16520451	    -31.00798031	     21.77376886	     61.16709509	     87.38110339	      0.00000000	      0.00000000	    -13.80022951	    -16.49702039	     64.21480895	     18.22436684	     87.60387880	      0.00000000	      0.00000000
